<svg xmlns="http://www.w3.org/2000/svg" xmlns:xlink="http://www.w3.org/1999/xlink" width="82.589" height="82.589" viewBox="0 0 82.589 82.589">
  <defs>
    <linearGradient id="linear-gradient" x1="-2.894" y1="3.964" x2="-2.894" y2="3.949" gradientUnits="objectBoundingBox">
      <stop offset="0" stop-color="#0068ff"/>
      <stop offset="1" stop-color="#005be1"/>
    </linearGradient>
    <filter id="Ellipse_2" x="0" y="0" width="82.589" height="82.589" filterUnits="userSpaceOnUse">
      <feOffset dy="2" input="SourceAlpha"/>
      <feGaussianBlur stdDeviation="3" result="blur"/>
      <feFlood flood-opacity="0.161"/>
      <feComposite operator="in" in2="blur"/>
      <feComposite in="SourceGraphic"/>
    </filter>
  </defs>
  <g id="zalo" transform="translate(8.775 6.208)">
    <g id="zalo-2" transform="translate(0.225 0.376)">
      <g id="Ellipse_57-2" transform="translate(0 0)">
        <g transform="matrix(1, 0, 0, 1, -9, -6.58)" filter="url(#Ellipse_2)">
          <circle id="Ellipse_2-2" data-name="Ellipse 2" cx="32.294" cy="32.294" r="32.294" transform="translate(9 7)" fill="url(#linear-gradient)"/>
        </g>
        <circle id="Ellipse_3" data-name="Ellipse 3" cx="32.404" cy="32.404" r="32.404" transform="translate(0.192)" fill="none" stroke="#009ed3" stroke-width="1"/>
      </g>
      <g id="zalo-seeklogo.com" transform="translate(15.56 16.449)">
        <path id="Path_8297" d="M6.006,28.147c-.118,0-.235-.118-.118-.235s.235-.118.353-.235a7.875,7.875,0,0,0,2.472-2.355A1.316,1.316,0,0,0,8.6,23.437l-.118-.118a14.224,14.224,0,0,1-.708-19.9A16.447,16.447,0,0,1,11.656.243a.253.253,0,0,0,.235-.235c0-.118-.118,0-.118,0h-7.3A4.653,4.653,0,0,0,0,4.6V27.676A4.507,4.507,0,0,0,4.239,32.15c2,.118,4,0,6.006,0H29.434a4.472,4.472,0,0,0,4.474-4.474h0V22.966a.253.253,0,0,0-.235.235,17.7,17.7,0,0,1-4.945,3.414,18.876,18.876,0,0,1-13.893.589,2.419,2.419,0,0,0-1.3,0C12.835,27.323,7.889,28.5,6.006,28.147Z" transform="translate(0 0.045)" fill="#fff"/>
        <path id="Union_2" d="M23.28,13.476a3.423,3.423,0,1,1,6.829-.471v.118a3.259,3.259,0,0,1-3.061,3.65h-.471a3.456,3.456,0,0,1-3.414-3.179C23.28,13.593,23.28,13.593,23.28,13.476Zm2-.118a2.272,2.272,0,0,0,.353,1.177,1.327,1.327,0,0,0,1.884.235h0l.235-.235a1.947,1.947,0,0,0,0-2.237,1.07,1.07,0,0,0-.942-.471h-.118a1.46,1.46,0,0,0-1.413,1.53ZM15.038,16.773A3.442,3.442,0,0,1,12.8,13.829,3.321,3.321,0,0,1,14.447,10.3a2.482,2.482,0,0,1,3.179.235,1.728,1.728,0,0,1,.707-.589.9.9,0,0,1,1.177.707v5.062a.9.9,0,0,1-.707.942,1.2,1.2,0,0,1-1.177-.353c-.118-.118-.235-.235-.353,0a2.48,2.48,0,0,1-1.53.589c-.116,0-.469-.118-.7-.118Zm-.235-3.3a1.427,1.427,0,0,0,2.237,1.176c.118-.118.235-.118.235-.235a1.947,1.947,0,0,0,0-2.237,1.454,1.454,0,0,0-.942-.471h-.118c-.824,0-1.413.708-1.413,1.767Zm6.476,3.3a1.03,1.03,0,0,1-.707-1.06V8.061A1.056,1.056,0,0,1,21.632,7a1.268,1.268,0,0,1,.942,1.177v7.535a1.056,1.056,0,0,1-1.06,1.06ZM6.8,16.655a1.449,1.449,0,0,1-1.177-.589,1.075,1.075,0,0,1,.235-1.295c1.295-1.53,2.472-3.179,3.767-4.709.118-.118.118-.235.235-.235,0-.118-.118-.118-.235-.118H6.914a1.061,1.061,0,0,1-.589-.118A.9.9,0,0,1,5.737,8.53a.746.746,0,0,1,.586-.708c.235,0,.353-.118.589-.118h4.356a1.493,1.493,0,0,1,.708.118.842.842,0,0,1,.589,1.06V9a7.919,7.919,0,0,1-.823,1.3c-1.06,1.414-2.121,2.711-3.181,4.122-.118.118-.118.235-.235.353h3.532a.938.938,0,0,1,1.06.823.917.917,0,0,1-.707,1.06H6.8Z" transform="translate(0.974 1.295)" fill="#fff"/>
      </g>
    </g>
  </g>
</svg>
