<svg xmlns="http://www.w3.org/2000/svg" xmlns:xlink="http://www.w3.org/1999/xlink" width="226.805" height="224.668" viewBox="0 0 226.805 224.668">
  <defs>
    <linearGradient id="linear-gradient" x1="0.5" y1="1" x2="0.5" gradientUnits="objectBoundingBox">
      <stop offset="0" stop-color="#67b292"/>
      <stop offset="1" stop-color="#38946c" stop-opacity="0"/>
    </linearGradient>
    <filter id="Subtraction_25" x="0" y="0" width="202.065" height="185.467" filterUnits="userSpaceOnUse">
      <feOffset dy="11" input="SourceAlpha"/>
      <feGaussianBlur stdDeviation="6.5" result="blur"/>
      <feFlood flood-color="#38946c" flood-opacity="0.231"/>
      <feComposite operator="in" in2="blur"/>
      <feComposite in="SourceGraphic"/>
    </filter>
    <linearGradient id="linear-gradient-2" x1="0.5" x2="0.5" y2="1" gradientUnits="objectBoundingBox">
      <stop offset="0" stop-color="#6ab394"/>
      <stop offset="1" stop-color="#38946c" stop-opacity="0.149"/>
    </linearGradient>
    <filter id="ios-add" x="170.065" y="167.928" width="56.74" height="56.74" filterUnits="userSpaceOnUse">
      <feOffset dx="-2" dy="5" input="SourceAlpha"/>
      <feGaussianBlur stdDeviation="3.5" result="blur-2"/>
      <feFlood flood-color="#3fb481" flood-opacity="0.259"/>
      <feComposite operator="in" in2="blur-2"/>
      <feComposite in="SourceGraphic"/>
    </filter>
  </defs>
  <g id="Group_26970" data-name="Group 26970" transform="translate(19.5 8.5)">
    <g transform="matrix(1, 0, 0, 1, -19.5, -8.5)" filter="url(#Subtraction_25)">
      <path id="Subtraction_25-2" data-name="Subtraction 25" d="M0,0H0V26.737H.249c25.7,0,46.614,21.16,46.614,47.168S25.952,121.073.249,121.073H0v27.242a72.976,72.976,0,0,0,14.77-1.507,72.3,72.3,0,0,0,13.756-4.321,73.043,73.043,0,0,0,12.449-6.838,74,74,0,0,0,10.846-9.055,74.529,74.529,0,0,0,8.949-10.975,74.409,74.409,0,0,0,6.757-12.6A74.415,74.415,0,0,0,71.8,89.1a75.55,75.55,0,0,0,1.489-14.945A75.55,75.55,0,0,0,71.8,59.212a74.4,74.4,0,0,0-4.27-13.92,74.418,74.418,0,0,0-6.757-12.6A74.526,74.526,0,0,0,51.821,21.72a74.026,74.026,0,0,0-10.846-9.055A72.975,72.975,0,0,0,28.526,5.828,72.262,72.262,0,0,0,14.77,1.507,72.981,72.981,0,0,0,0,0Z" transform="matrix(0.59, 0.81, -0.81, 0.59, 139.49, 8.5)" fill="url(#linear-gradient)"/>
    </g>
    <g transform="matrix(1, 0, 0, 1, -19.5, -8.5)" filter="url(#ios-add)">
      <path id="ios-add-2" data-name="ios-add" d="M11.19,24.61H24.61V11.19a2.225,2.225,0,0,1,4.45,0V24.61H42.48a2.225,2.225,0,0,1,0,4.45H29.06V42.48a2.225,2.225,0,0,1-4.45,0V29.06H11.19a2.225,2.225,0,1,1,0-4.45Z" transform="translate(173.6 164.46)" fill="url(#linear-gradient-2)"/>
    </g>
  </g>
</svg>
