<svg xmlns="http://www.w3.org/2000/svg" xmlns:xlink="http://www.w3.org/1999/xlink" width="525" height="1045.393" viewBox="0 0 525 1045.393">
  <defs>
    <linearGradient id="linear-gradient" x1="0.5" y1="1" x2="0.5" gradientUnits="objectBoundingBox">
      <stop offset="0" stop-color="#166441" stop-opacity="0.561"/>
      <stop offset="1" stop-color="#304a31" stop-opacity="0"/>
    </linearGradient>
  </defs>
  <path id="Subtraction_38" data-name="Subtraction 38" d="M2.3,0C1.547,0,.772,0,0,.005V219.744c.56,0,1.139-.005,1.771-.005,165.267,0,299.722,135.109,299.722,301.18S167.038,822.1,1.771,822.1c-.6,0-1.18,0-1.77-.005v223.295c.864,0,1.618.005,2.3.005a531.1,531.1,0,0,0,53.443-2.7,524.225,524.225,0,0,0,51.9-7.92c16.839-3.446,33.692-7.779,50.092-12.88,16.218-5.045,32.375-10.958,48.023-17.577,15.507-6.558,30.879-13.964,45.691-22.01,14.713-7.993,29.212-16.8,43.1-26.181,13.828-9.343,27.366-19.466,40.239-30.091,12.846-10.6,25.334-21.951,37.119-33.736s23.134-24.273,33.736-37.119c10.63-12.881,20.754-26.42,30.09-40.24,9.384-13.89,18.193-28.39,26.182-43.1,8.049-14.817,15.454-30.19,22.011-45.691,6.621-15.655,12.535-31.812,17.577-48.023,5.1-16.4,9.434-33.251,12.88-50.092a524.164,524.164,0,0,0,7.921-51.9A531.105,531.105,0,0,0,525,522.7a531.141,531.141,0,0,0-2.7-53.443,524.107,524.107,0,0,0-7.921-51.9c-3.447-16.842-7.78-33.7-12.88-50.092-5.042-16.211-10.956-32.369-17.577-48.023-6.557-15.5-13.962-30.874-22.011-45.691-7.988-14.707-16.8-29.206-26.182-43.1-9.337-13.821-19.461-27.36-30.09-40.239-10.6-12.85-21.955-25.338-33.736-37.119s-24.268-23.13-37.119-33.736c-12.881-10.63-26.42-20.754-40.239-30.09-13.888-9.383-28.388-18.192-43.1-26.182-14.817-8.048-30.189-15.454-45.691-22.01-15.648-6.619-31.805-12.532-48.023-17.577-16.4-5.1-33.255-9.434-50.092-12.88A524.176,524.176,0,0,0,55.747,2.7,531.127,531.127,0,0,0,2.3,0Z" transform="translate(525 1045.393) rotate(180)" opacity="0.12" fill="url(#linear-gradient)"/>
</svg>
