<svg xmlns="http://www.w3.org/2000/svg" xmlns:xlink="http://www.w3.org/1999/xlink" width="85" height="85" viewBox="0 0 85 85">
  <defs>
    <linearGradient id="linear-gradient" x1="0.5" x2="0.5" y2="1" gradientUnits="objectBoundingBox">
      <stop offset="0" stop-color="#5dc296"/>
      <stop offset="1" stop-color="#114e34"/>
    </linearGradient>
    <filter id="Ellipse_57" x="0" y="0" width="85" height="85" filterUnits="userSpaceOnUse">
      <feOffset dy="2" input="SourceAlpha"/>
      <feGaussianBlur stdDeviation="2.5" result="blur"/>
      <feFlood flood-opacity="0.161"/>
      <feComposite operator="in" in2="blur"/>
      <feComposite in="SourceGraphic"/>
    </filter>
  </defs>
  <g id="calling" transform="translate(7.5 5.5)">
    <g transform="matrix(1, 0, 0, 1, -7.5, -5.5)" filter="url(#Ellipse_57)">
      <g id="Ellipse_57-2" data-name="Ellipse 57" transform="translate(7.5 5.5)" stroke="#38946c" stroke-width="1" fill="url(#linear-gradient)">
        <circle cx="35" cy="35" r="35" stroke="none"/>
        <circle cx="35" cy="35" r="34.5" fill="none"/>
      </g>
    </g>
    <path id="pin" d="M10.974.25a10.7,10.7,0,0,1,7.807,3.2,10.525,10.525,0,0,1,3.241,7.77A15.014,15.014,0,0,1,20.88,16.49a30.57,30.57,0,0,1-2.762,5.524Q16.5,24.555,14.877,26.8t-2.725,3.572l-1.178,1.252Q10.532,31.184,9.8,30.3T7.182,26.875Q5.3,24.334,3.83,21.941a33.658,33.658,0,0,1-2.652-5.414A14.885,14.885,0,0,1,0,11.224a10.581,10.581,0,0,1,3.2-7.77A10.581,10.581,0,0,1,10.974.25Zm0,14.877a3.886,3.886,0,0,0,2.8-1.142,3.826,3.826,0,0,0,0-5.524,3.879,3.879,0,0,0-2.8-1.141,3.9,3.9,0,0,0-3.9,3.9,3.9,3.9,0,0,0,3.9,3.9Z" transform="translate(23.656 19.268)" fill="#f9f6f2"/>
  </g>
</svg>
