<svg xmlns="http://www.w3.org/2000/svg" xmlns:xlink="http://www.w3.org/1999/xlink" width="56.631" height="56.631" viewBox="0 0 56.631 56.631">
  <defs>
    <linearGradient id="linear-gradient" x1="0.5" x2="0.5" y2="1" gradientUnits="objectBoundingBox">
      <stop offset="0" stop-color="#67b292"/>
      <stop offset="1" stop-color="#166441"/>
    </linearGradient>
  </defs>
  <g id="Group_1093" data-name="Group 1093" transform="translate(-917.173 -1257.941)">
    <circle id="Ellipse_10" data-name="Ellipse 10" cx="28.316" cy="28.316" r="28.316" transform="translate(917.173 1257.941)" fill="url(#linear-gradient)"/>
    <path id="play" d="M8.56,23.051a1.729,1.729,0,0,1-.855-.228,1.921,1.921,0,0,1-.951-1.678V6.969a1.921,1.921,0,0,1,.951-1.678,1.717,1.717,0,0,1,1.748.022l12.115,7.252a1.76,1.76,0,0,1,0,2.982L9.451,22.8a1.735,1.735,0,0,1-.891.25Z" transform="translate(931.711 1272.366)" fill="none" stroke="#f9f9f8" stroke-width="2"/>
  </g>
</svg>
