<svg xmlns="http://www.w3.org/2000/svg" width="22.926" height="22.925" viewBox="0 0 22.926 22.925">
  <path id="phone" d="M21.625,17.079a5.07,5.07,0,0,1-.154,1.083,6.1,6.1,0,0,1-.323,1.052,4.119,4.119,0,0,1-1.874,1.628,5.954,5.954,0,0,1-2.857.783,6.13,6.13,0,0,1-.814-.053,6.228,6.228,0,0,1-.883-.192q-.484-.139-.722-.223t-.852-.315q-.614-.231-.753-.276a13.9,13.9,0,0,1-2.688-1.275,23.156,23.156,0,0,1-4.055-3.318,23.155,23.155,0,0,1-3.318-4.055A13.927,13.927,0,0,1,1.06,9.231q-.046-.138-.276-.753T.469,7.626Q.384,7.388.246,6.9a6.365,6.365,0,0,1-.192-.883A5.989,5.989,0,0,1,0,5.207,5.957,5.957,0,0,1,.783,2.35,4.119,4.119,0,0,1,2.411.476,6.118,6.118,0,0,1,3.463.154,5.063,5.063,0,0,1,4.546,0a.857.857,0,0,1,.323.046q.276.092.814,1.167.169.292.461.83t.538.976q.246.438.476.822.046.061.269.384a4.373,4.373,0,0,1,.33.545.992.992,0,0,1,.108.438,1.275,1.275,0,0,1-.438.768,7.5,7.5,0,0,1-.952.845,9.268,9.268,0,0,0-.952.814,1.17,1.17,0,0,0-.438.706,1.036,1.036,0,0,0,.077.345q.077.207.13.315t.215.369q.162.261.177.292a16.119,16.119,0,0,0,2.673,3.61,16.119,16.119,0,0,0,3.61,2.673q.031.016.292.177t.369.215a3.224,3.224,0,0,0,.315.13,1.056,1.056,0,0,0,.345.077,1.17,1.17,0,0,0,.706-.438,9.268,9.268,0,0,0,.814-.952,7.5,7.5,0,0,1,.845-.952,1.275,1.275,0,0,1,.768-.438,1,1,0,0,1,.438.108,4.278,4.278,0,0,1,.545.33q.323.223.384.269.384.231.822.476t.976.538q.538.292.83.461,1.075.538,1.167.814a.857.857,0,0,1,.046.323Z" transform="translate(0.65 0.65)" fill="none" stroke="#166441" stroke-width="1.3"/>
</svg>
